<svg width="512" height="512" viewBox="0 0 512 512" fill="none" xmlns="http://www.w3.org/2000/svg">
<style>
	@media (prefers-color-scheme: light) {
		.letters {
			fill: #252328;
		}
		
		rect {
			fill: #d0d7e2;
		}
	}
</style>
	<rect width="512" height="512" fill="#252328"/>
	<path class="letters" d="M268.438 146.165C268.815 145.456 269.294 144.788 269.559 144.036C271.221 139.194 274.657 136.731 279.51 136.115C280.499 135.99 281.508 136 282.507 136C325.216 136 367.935 136.011 410.634 136.021C418.606 136.021 426.457 136.94 434.124 139.131C454.596 144.976 467.402 158.564 472.826 179.509C474.814 187.201 475.619 195.06 475.711 203.002C475.833 212.624 475.181 222.163 472.846 231.535C470.746 239.915 467.432 247.721 462.182 254.589C454.148 265.098 443.361 271.078 430.872 274.115C424.652 275.628 418.331 276.442 411.928 276.442C385.797 276.474 359.666 276.474 333.525 276.484C329.131 276.484 325.298 275.138 323.309 270.869C321.138 266.236 321.23 261.466 323.993 257.01C325.43 254.693 327.673 253.399 330.273 252.94C331.976 252.647 333.719 252.533 335.442 252.533C358.29 252.501 381.158 252.501 404.017 252.522C411.317 252.533 418.576 252.167 425.662 250.132C427.405 249.631 429.138 249.036 430.831 248.348C438.12 245.342 443.259 240.124 446.277 232.672C448.571 227.016 449.743 221.098 450.233 215.056C450.926 206.404 450.987 197.752 449.346 189.174C449.121 187.984 448.846 186.804 448.571 185.636C445.359 172.392 436.897 164.711 424.092 161.935C419.748 160.995 415.283 160.567 410.858 160.129C408.146 159.858 405.393 159.952 402.661 159.952C367.69 159.941 332.73 159.941 297.749 159.941H293.957V164.085C293.957 229.938 293.957 295.781 293.947 361.634C293.947 363.221 293.906 364.807 293.722 366.372C293.161 371.194 290.602 374.387 286.065 375.901C285.637 376.036 285.24 376.266 284.832 376.454H277.185C276.961 376.297 276.767 376.068 276.533 375.995C272.852 374.836 270.497 372.373 269.396 368.585C269.233 368 268.764 367.499 268.438 366.946V146.165Z" fill="#D0D7E2"/>
	<path class="letters" d="M36.2754 198.277C36.2754 189.979 37.8045 182.13 40.8841 174.752C43.953 167.363 48.1875 160.755 53.5661 154.916C58.9448 149.078 65.3286 144.458 72.7175 141.069C80.0957 137.689 87.9445 136 96.2423 136H219.406C224.955 136 227.714 138.93 227.714 144.768C227.714 150.297 224.955 153.066 219.406 153.066H99.0119C85.7845 153.066 75.0914 157.525 66.9539 166.443C58.7951 175.372 54.7317 185.98 54.7317 198.277C54.7317 204.115 55.7155 209.804 57.7258 215.343C59.7147 220.882 62.5697 225.726 66.2589 229.875C69.948 234.024 74.5567 237.413 80.0957 240.023C85.6348 242.642 91.933 243.947 99.0119 243.947H182.963C191.882 243.947 200.19 245.636 207.878 249.026C215.567 252.405 222.325 256.939 228.174 262.628C234.012 268.327 238.557 275.16 241.786 283.159C245.016 291.157 246.63 299.765 246.63 308.993C246.63 318.211 245.016 326.754 241.786 334.592C238.557 342.43 234.012 349.285 228.174 355.112C222.325 360.962 215.567 365.581 207.878 368.96C200.19 372.35 191.882 374.029 182.963 374.029H51.0319C45.5035 374.029 42.734 371.259 42.734 365.731V365.271C42.734 359.732 45.5035 356.962 51.0319 356.962H180.664C195.421 356.962 207.034 352.439 215.492 343.361C223.939 334.293 228.174 322.83 228.174 308.993C228.174 296.076 224.025 284.848 215.716 275.32C207.419 265.782 195.72 261.013 180.664 261.013H96.2423C87.9445 261.013 80.0957 259.324 72.7175 255.945C65.3286 252.566 58.9448 248.021 53.5661 242.332C48.1875 236.644 43.953 230.035 40.8841 222.497C37.8045 214.969 36.2754 206.895 36.2754 198.277Z" fill="#D0D7E2"/>
</svg>
