<svg width="305" height="48" viewBox="0 0 305 48" fill="none" xmlns="http://www.w3.org/2000/svg">
<path d="M144.174 1.19572C144.211 1.12772 144.258 1.06372 144.284 0.991718C144.447 0.527718 144.784 0.291719 145.26 0.232719C145.357 0.220719 145.456 0.221718 145.554 0.221718C149.743 0.221718 153.933 0.222719 158.121 0.223719C158.903 0.223719 159.673 0.311719 160.425 0.521719C162.433 1.08172 163.689 2.38372 164.221 4.39072C164.416 5.12772 164.495 5.88072 164.504 6.64172C164.516 7.56372 164.452 8.47772 164.223 9.37572C164.017 10.1787 163.692 10.9267 163.177 11.5847C162.389 12.5917 161.331 13.1647 160.106 13.4557C159.496 13.6007 158.876 13.6787 158.248 13.6787C155.685 13.6817 153.122 13.6817 150.558 13.6827C150.127 13.6827 149.751 13.5537 149.556 13.1447C149.343 12.7007 149.352 12.2437 149.623 11.8167C149.764 11.5947 149.984 11.4707 150.239 11.4267C150.406 11.3987 150.577 11.3877 150.746 11.3877C152.987 11.3847 155.23 11.3847 157.472 11.3867C158.188 11.3877 158.9 11.3527 159.595 11.1577C159.766 11.1097 159.936 11.0527 160.102 10.9867C160.817 10.6987 161.321 10.1987 161.617 9.48472C161.842 8.94272 161.957 8.37572 162.005 7.79672C162.073 6.96772 162.079 6.13872 161.918 5.31672C161.896 5.20272 161.869 5.08972 161.842 4.97772C161.527 3.70872 160.697 2.97272 159.441 2.70672C159.015 2.61672 158.577 2.57572 158.143 2.53372C157.877 2.50772 157.607 2.51672 157.339 2.51672C153.909 2.51572 150.48 2.51572 147.049 2.51572H146.677V2.91272C146.677 9.22272 146.677 15.5317 146.676 21.8417C146.676 21.9937 146.672 22.1457 146.654 22.2957C146.599 22.7577 146.348 23.0637 145.903 23.2087C145.861 23.2217 145.822 23.2437 145.782 23.2617H145.032C145.01 23.2467 144.991 23.2247 144.968 23.2177C144.607 23.1067 144.376 22.8707 144.268 22.5077C144.252 22.4517 144.206 22.4037 144.174 22.3507V1.19572Z" fill="#D0D7E2"/>
<path d="M229.24 23.2617C229.228 23.2487 229.219 23.2297 229.204 23.2257C228.808 23.1017 228.568 22.8197 228.392 22.4587C227.626 20.8877 226.854 19.3187 226.084 17.7487C226.041 17.6607 225.997 17.5737 225.938 17.4557H225.604C222.433 17.4557 219.261 17.4567 216.091 17.4547C215.903 17.4547 215.715 17.4487 215.53 17.4217C214.937 17.3377 214.643 16.9147 214.769 16.3317C214.796 16.2107 214.838 16.0917 214.889 15.9787C215.114 15.4887 215.491 15.2147 216.04 15.2037C216.29 15.1987 216.54 15.2007 216.791 15.2007H224.482H224.809C224.83 15.1687 224.835 15.1617 224.838 15.1537C224.842 15.1457 224.847 15.1357 224.844 15.1287C224.807 15.0377 224.773 14.9467 224.731 14.8587C222.779 10.7687 220.826 6.67972 218.872 2.59172C218.866 2.57872 218.843 2.57472 218.813 2.55972C218.77 2.64572 218.724 2.72972 218.683 2.81672C215.593 9.29872 212.499 15.7797 209.416 22.2657C209.2 22.7207 208.932 23.0897 208.442 23.2617H207.638C207.557 23.2277 207.475 23.1957 207.395 23.1607C206.994 22.9927 206.786 22.6417 206.87 22.2177C206.915 21.9927 206.994 21.7707 207.093 21.5637C208.69 18.2047 210.293 14.8487 211.894 11.4917C213.462 8.20772 215.029 4.92472 216.596 1.63972C216.642 1.54372 216.688 1.44772 216.738 1.35172C217.218 0.430719 218.051 0.0317189 219.062 0.0947189C220.01 0.154719 220.649 0.656719 221.051 1.50072C222.334 4.19972 223.623 6.89472 224.91 9.59072C226.808 13.5667 228.707 17.5427 230.602 21.5197C230.69 21.7037 230.774 21.8947 230.824 22.0917C230.958 22.6137 230.739 23.0067 230.237 23.1957C230.189 23.2127 230.144 23.2397 230.097 23.2617H229.24Z" fill="#D0D7E2"/>
<path d="M173.333 23.2617C172.702 23.0527 172.475 22.5867 172.502 21.9577C172.505 21.9057 172.503 21.8517 172.503 21.7977C172.503 15.0237 172.502 8.24972 172.503 1.47472C172.503 1.33272 172.502 1.18972 172.515 1.04772C172.563 0.492718 172.874 0.140719 173.419 0.0347195C173.674 -0.0142805 173.934 -0.0162817 174.188 0.0577183C174.632 0.185718 174.874 0.489718 174.939 0.936718C174.962 1.08572 174.959 1.23872 174.959 1.39072C174.96 8.22672 174.96 15.0637 174.959 21.9007C174.959 22.0337 174.959 22.1687 174.944 22.3017C174.897 22.7267 174.686 23.0337 174.279 23.1957C174.231 23.2147 174.185 23.2397 174.138 23.2617H173.333Z" fill="#D0D7E2"/>
<path d="M242.909 23.2617C242.88 23.2427 242.852 23.2197 242.821 23.2087C242.349 23.0427 242.139 22.6887 242.105 22.2107C242.097 22.1047 242.1 21.9967 242.1 21.8907C242.1 16.6537 242.099 11.4167 242.102 6.18072C242.102 5.97672 242.112 5.76772 242.159 5.57172C242.255 5.17072 242.528 4.93072 242.928 4.83772C243.192 4.77572 243.459 4.77572 243.724 4.83672C244.147 4.93472 244.415 5.19672 244.513 5.61872C244.546 5.76472 244.559 5.91872 244.559 6.06972C244.561 11.3867 244.561 16.7027 244.559 22.0207C244.559 22.1607 244.544 22.3057 244.513 22.4447C244.436 22.7777 244.237 23.0177 243.922 23.1577C243.85 23.1897 243.782 23.2267 243.713 23.2617H242.909Z" fill="#D0D7E2"/>
<path d="M292.846 23.0579H286.763C286.647 23.0579 286.53 23.0649 286.415 23.0499C286.284 23.0339 286.148 23.0119 286.026 22.9629C285.553 22.7739 285.332 22.2769 285.423 21.6339C285.494 21.1289 285.842 20.7889 286.344 20.7409C286.494 20.7269 286.647 20.7269 286.798 20.7269C290.658 20.7269 294.516 20.7269 298.374 20.7259C298.867 20.7259 299.36 20.7019 299.834 20.5639C301.278 20.1449 302.116 19.1509 302.448 17.7209C302.664 16.7879 302.617 15.8539 302.24 14.9629C301.775 13.8659 301.022 13.0619 299.835 12.7339C299.349 12.5999 298.85 12.5709 298.349 12.5709C295.874 12.5699 293.4 12.5279 290.926 12.5809C288.068 12.6429 285.414 10.5529 284.894 7.43594C284.418 4.58794 285.971 1.73894 288.579 0.645939C289.245 0.366939 289.941 0.22294 290.664 0.22294C293.165 0.22294 295.666 0.221939 298.167 0.221939H301.812C301.892 0.221939 301.973 0.220939 302.053 0.221939C303.017 0.228939 303.538 1.00694 303.185 1.91294C303.042 2.27994 302.762 2.47894 302.379 2.53294C302.23 2.55394 302.076 2.55194 301.925 2.55194C298.343 2.55294 294.761 2.55294 291.179 2.55294C290.713 2.55294 290.249 2.57794 289.802 2.72294C288.604 3.10894 287.844 3.94894 287.466 5.11694C287.1 6.24594 287.211 7.36494 287.791 8.40494C288.467 9.61794 289.543 10.1979 290.915 10.2349C291.683 10.2549 292.451 10.2389 293.22 10.2389C295.105 10.2399 296.991 10.2049 298.873 10.2489C301.162 10.3029 302.922 11.3499 304.132 13.2829C304.69 14.1739 304.967 15.1679 304.989 16.2279C305.005 17.0609 304.995 17.8889 304.717 18.6879C303.895 21.0469 302.248 22.4719 299.807 22.9719C299.426 23.0499 299.026 23.0519 298.634 23.0539C296.704 23.0619 294.776 23.0579 292.846 23.0579Z" fill="#D0D7E2"/>
<path d="M262.228 2.55247V20.6925C262.291 20.7045 262.349 20.7205 262.409 20.7245C262.489 20.7305 262.569 20.7265 262.65 20.7265H277.524C277.675 20.7265 277.828 20.7255 277.979 20.7425C278.446 20.7915 278.795 21.1075 278.869 21.5715C278.9 21.7705 278.903 21.9815 278.877 22.1815C278.815 22.6745 278.46 22.9995 277.965 23.0475C277.85 23.0575 277.733 23.0565 277.617 23.0565C272.132 23.0575 266.647 23.0575 261.162 23.0555C260.985 23.0555 260.802 23.0505 260.63 23.0105C260.154 22.8985 259.857 22.5635 259.79 22.0815C259.77 21.9315 259.761 21.7795 259.761 21.6285C259.76 14.9875 259.76 8.34547 259.761 1.70447C259.762 1.53547 259.77 1.36547 259.795 1.19847C259.875 0.655473 260.274 0.282472 260.821 0.231472C260.936 0.220472 261.053 0.221472 261.169 0.221472C266.591 0.221472 272.014 0.220473 277.437 0.223473C277.631 0.223473 277.832 0.236472 278.019 0.283472C278.356 0.369472 278.574 0.598473 278.671 0.931473C278.759 1.22947 278.758 1.53147 278.668 1.82847C278.54 2.24847 278.246 2.47947 277.816 2.53547C277.658 2.55547 277.496 2.55247 277.334 2.55247C272.421 2.55247 267.508 2.55247 262.594 2.55247H262.228Z" fill="#D0D7E2"/>
<path d="M187.806 20.7269H188.189H202.203C202.355 20.7269 202.508 20.7239 202.659 20.7419C203.099 20.7939 203.4 21.0299 203.531 21.4599C203.616 21.7399 203.618 22.0249 203.545 22.3059C203.437 22.7269 203.104 23.0019 202.66 23.0459C202.536 23.0589 202.41 23.0569 202.285 23.0569C197.114 23.0579 191.943 23.0579 186.771 23.0569C186.611 23.0569 186.447 23.0589 186.29 23.0319C185.74 22.9339 185.406 22.5419 185.352 21.9489C185.343 21.8519 185.345 21.7519 185.345 21.6549C185.345 14.8809 185.345 8.10687 185.347 1.33287C185.347 1.17287 185.357 1.01087 185.387 0.854868C185.471 0.415868 185.741 0.127868 186.177 0.0498676C186.435 0.00386763 186.715 0.000868179 186.972 0.0488682C187.467 0.139868 187.758 0.511868 187.799 1.03487C187.811 1.17687 187.806 1.31987 187.806 1.46287V20.3389V20.7269Z" fill="#D0D7E2"/>
<path d="M243.344 0.221375C246.461 0.221375 249.578 0.221375 252.696 0.221375C252.838 0.221375 252.982 0.219375 253.123 0.231375C253.591 0.273375 253.941 0.555375 254.026 1.01138C254.07 1.24238 254.07 1.49537 254.024 1.72537C253.937 2.16337 253.639 2.41638 253.197 2.48638C253.065 2.50738 252.93 2.51438 252.796 2.51438C246.482 2.51638 240.167 2.51537 233.853 2.51537C233.763 2.51537 233.673 2.51338 233.585 2.50438C232.978 2.44038 232.649 2.11838 232.594 1.50838C232.577 1.32538 232.596 1.13138 232.641 0.953375C232.744 0.543375 233.077 0.277375 233.511 0.233375C233.653 0.219375 233.796 0.221375 233.939 0.221375C237.074 0.221375 240.209 0.221375 243.344 0.221375Z" fill="#D0D7E2"/>
<path d="M270.538 12.4904C269.084 12.4904 267.629 12.4914 266.175 12.4904C265.374 12.4894 264.969 12.0824 264.975 11.2874C264.979 10.5484 265.377 10.1484 266.122 10.1474C268.22 10.1454 270.316 10.1464 272.414 10.1464C273.262 10.1464 274.109 10.1424 274.957 10.1504C275.133 10.1524 275.317 10.1734 275.48 10.2324C275.948 10.3994 276.109 10.7874 276.132 11.2424C276.154 11.7134 276.048 12.1464 275.577 12.3654C275.392 12.4514 275.164 12.4844 274.956 12.4854C273.483 12.4954 272.011 12.4904 270.538 12.4904Z" fill="#D0D7E2"/>
<path d="M0 6.39212C0 5.61612 0.143 4.88212 0.431 4.19212C0.718 3.50112 1.114 2.88312 1.617 2.33712C2.12 1.79112 2.717 1.35912 3.408 1.04212C4.098 0.726124 4.832 0.568125 5.608 0.568125H17.126C17.645 0.568125 17.903 0.842124 17.903 1.38812C17.903 1.90512 17.645 2.16412 17.126 2.16412H5.867C4.63 2.16412 3.63 2.58112 2.869 3.41512C2.106 4.25012 1.726 5.24212 1.726 6.39212C1.726 6.93812 1.818 7.47012 2.006 7.98812C2.192 8.50612 2.459 8.95912 2.804 9.34712C3.149 9.73512 3.58 10.0521 4.098 10.2961C4.616 10.5411 5.205 10.6631 5.867 10.6631H13.718C14.552 10.6631 15.329 10.8211 16.048 11.1381C16.767 11.4541 17.399 11.8781 17.946 12.4101C18.492 12.9431 18.917 13.5821 19.219 14.3301C19.521 15.0781 19.672 15.8831 19.672 16.7461C19.672 17.6081 19.521 18.4071 19.219 19.1401C18.917 19.8731 18.492 20.5141 17.946 21.0591C17.399 21.6061 16.767 22.0381 16.048 22.3541C15.329 22.6711 14.552 22.8281 13.718 22.8281H1.38C0.863 22.8281 0.604 22.5691 0.604 22.0521V22.0091C0.604 21.4911 0.863 21.2321 1.38 21.2321H13.503C14.883 21.2321 15.969 20.8091 16.76 19.9601C17.55 19.1121 17.946 18.0401 17.946 16.7461C17.946 15.5381 17.558 14.4881 16.781 13.5971C16.005 12.7051 14.911 12.2591 13.503 12.2591H5.608C4.832 12.2591 4.098 12.1011 3.408 11.7851C2.717 11.4691 2.12 11.0441 1.617 10.5121C1.114 9.98012 0.718 9.36212 0.431 8.65712C0.143 7.95312 0 7.19812 0 6.39212Z" fill="#D0D7E2"/>
<path d="M33.2177 22.2249V6.00394C33.2177 5.45794 33.4907 5.18394 34.0367 5.18394H34.1237C34.6697 5.18394 34.9437 5.45794 34.9437 6.00394V22.2249C34.9437 22.7719 34.6417 23.0439 34.0367 23.0439C33.4907 23.0439 33.2177 22.7719 33.2177 22.2249ZM23.5977 1.34495C23.5977 0.826946 23.8567 0.568945 24.3737 0.568945H43.7867C44.3047 0.568945 44.5637 0.826946 44.5637 1.34495C44.5637 1.86295 44.3047 2.12094 43.7867 2.12094H24.3737C23.8567 2.12094 23.5977 1.86295 23.5977 1.34495Z" fill="#D0D7E2"/>
<path d="M47.1942 21.9229L56.9442 1.56095C57.3182 0.812945 57.9362 0.438946 58.7992 0.438946C59.6332 0.438946 60.2362 0.812945 60.6112 1.56095L70.3612 21.9229C70.7342 22.6709 70.5042 23.0439 69.6702 23.0439H69.6272C69.2532 23.0439 68.9802 22.8719 68.8072 22.5269L66.1762 17.1769H55.7792C55.0312 17.1769 54.8162 16.8469 55.1322 16.1849C55.3052 15.8399 55.5782 15.6679 55.9522 15.6679H65.4862L58.7562 1.60394L48.7472 22.5269C48.5752 22.8719 48.2872 23.0439 47.8852 23.0439C47.0502 23.0439 46.8202 22.6709 47.1942 21.9229Z" fill="#D0D7E2"/>
<path d="M78.2119 1.47443C78.2119 0.870434 78.5139 0.568434 79.1179 0.568434H91.6719C95.8709 0.568434 97.9709 2.69743 97.9709 6.95343C97.9709 8.76543 97.4959 10.2394 96.5469 11.3744C95.5979 12.5114 94.1019 13.2804 92.0609 13.6824L98.0999 21.9234C98.6749 22.6714 98.4879 23.0444 97.5389 23.0444C97.0789 23.0444 96.6909 22.8434 96.3739 22.4404L89.9889 13.6824H84.2949C83.7769 13.6824 83.5189 13.4244 83.5189 12.9064C83.5189 12.3894 83.7769 12.1304 84.2949 12.1304H91.1109C92.6639 12.1304 93.9079 11.6844 94.8429 10.7924C95.7769 9.90143 96.2449 8.57843 96.2449 6.82343C96.2449 5.24243 95.8849 4.06243 95.1669 3.28643C94.4469 2.50943 93.0949 2.12143 91.1109 2.12143H79.9379V22.2244C79.9379 22.7714 79.6359 23.0444 79.0319 23.0444C78.4849 23.0444 78.2119 22.7714 78.2119 22.2244V1.47443Z" fill="#D0D7E2"/>
<path d="M112.206 22.2249V6.00394C112.206 5.45794 112.479 5.18394 113.026 5.18394H113.112C113.658 5.18394 113.932 5.45794 113.932 6.00394V22.2249C113.932 22.7719 113.63 23.0439 113.026 23.0439C112.479 23.0439 112.206 22.7719 112.206 22.2249ZM102.586 1.34495C102.586 0.826946 102.845 0.568945 103.363 0.568945H122.776C123.293 0.568945 123.552 0.826946 123.552 1.34495C123.552 1.86295 123.293 2.12094 122.776 2.12094H103.363C102.845 2.12094 102.586 1.86295 102.586 1.34495Z" fill="#D0D7E2"/>
<path d="M51.8685 41.0393L53.4655 35.8333C53.5095 35.6583 53.6325 35.5703 53.8375 35.5703C54.2015 35.5703 54.3255 35.7453 54.2085 36.0963L52.3275 42.0893C52.3125 42.1773 52.2835 42.2213 52.2395 42.2213C52.2105 42.2213 52.1745 42.1773 52.1305 42.0893L51.9115 41.5643C51.8825 41.4763 51.8605 41.3893 51.8465 41.3023C51.8315 41.2143 51.8385 41.1273 51.8685 41.0393ZM42.5495 35.5703C42.7535 35.5703 42.8765 35.6583 42.9205 35.8333L45.3275 44.1683L47.6235 38.8083C47.7555 38.5013 47.9955 38.3493 48.3465 38.3493C48.6955 38.3493 48.9365 38.5013 49.0685 38.8083L51.4525 44.2773C51.6125 44.6123 51.5035 44.7803 51.1235 44.7803C50.9195 44.7803 50.7885 44.6993 50.7305 44.5393L48.3245 39.0933L46.1365 44.2333C45.9905 44.5983 45.7065 44.7803 45.2835 44.7803C44.8755 44.7803 44.6125 44.5833 44.4955 44.1893L42.1555 36.0963C42.0535 35.7453 42.1845 35.5703 42.5495 35.5703Z" fill="#D0D7E2"/>
<path d="M67.4437 41.0393L69.0407 35.8333C69.0847 35.6583 69.2077 35.5703 69.4127 35.5703C69.7767 35.5703 69.9007 35.7453 69.7837 36.0963L67.9027 42.0893C67.8877 42.1773 67.8597 42.2213 67.8157 42.2213C67.7857 42.2213 67.7497 42.1773 67.7057 42.0893L67.4867 41.5643C67.4577 41.4763 67.4357 41.3893 67.4217 41.3023C67.4067 41.2143 67.4147 41.1273 67.4437 41.0393ZM58.1247 35.5703C58.3287 35.5703 58.4527 35.6583 58.4967 35.8333L60.9027 44.1683L63.1997 38.8083C63.3307 38.5013 63.5717 38.3493 63.9217 38.3493C64.2717 38.3493 64.5127 38.5013 64.6437 38.8083L67.0277 44.2773C67.1887 44.6123 67.0787 44.7803 66.6997 44.7803C66.4947 44.7803 66.3637 44.6993 66.3057 44.5393L63.8997 39.0933L61.7127 44.2333C61.5657 44.5983 61.2817 44.7803 60.8587 44.7803C60.4507 44.7803 60.1877 44.5833 60.0717 44.1893L57.7307 36.0963C57.6287 35.7453 57.7597 35.5703 58.1247 35.5703Z" fill="#D0D7E2"/>
<path d="M83.0185 41.0393L84.6155 35.8333C84.6595 35.6583 84.7825 35.5703 84.9875 35.5703C85.3515 35.5703 85.4755 35.7453 85.3595 36.0963L83.4775 42.0893C83.4625 42.1773 83.4345 42.2213 83.3905 42.2213C83.3605 42.2213 83.3245 42.1773 83.2805 42.0893L83.0615 41.5643C83.0325 41.4763 83.0105 41.3893 82.9965 41.3023C82.9815 41.2143 82.9895 41.1273 83.0185 41.0393ZM73.6995 35.5703C73.9035 35.5703 74.0275 35.6583 74.0715 35.8333L76.4775 44.1683L78.7745 38.8083C78.9065 38.5013 79.1465 38.3493 79.4965 38.3493C79.8465 38.3493 80.0875 38.5013 80.2185 38.8083L82.6025 44.2773C82.7635 44.6123 82.6535 44.7803 82.2745 44.7803C82.0705 44.7803 81.9385 44.6993 81.8805 44.5393L79.4745 39.0933L77.2875 44.2333C77.1415 44.5983 76.8565 44.7803 76.4345 44.7803C76.0255 44.7803 75.7635 44.5833 75.6465 44.1893L73.3065 36.0963C73.2035 35.7453 73.3345 35.5703 73.6995 35.5703Z" fill="#D0D7E2"/>
<path d="M88.8154 44.2554V43.6424C88.8154 43.3514 88.9614 43.2054 89.2524 43.2054H89.8654C90.1564 43.2054 90.3024 43.3514 90.3024 43.6424V44.2554C90.3024 44.5474 90.1564 44.6924 89.8654 44.6924H89.2524C88.9614 44.6924 88.8154 44.5474 88.8154 44.2554Z" fill="#D0D7E2"/>
<path d="M96.5371 38.0864C96.5371 37.2994 96.7421 36.7014 97.1501 36.2924C97.5581 35.8844 98.1561 35.6804 98.9431 35.6804H103.909C104.142 35.6804 104.259 35.7974 104.259 36.0304C104.259 36.2634 104.142 36.3804 103.909 36.3804H99.0971C98.4841 36.3804 98.0391 36.5044 97.7621 36.7514C97.4851 37.0004 97.3471 37.4304 97.3471 38.0424C97.3471 38.6544 97.4811 39.0814 97.7511 39.3214C98.0211 39.5634 98.4691 39.6834 99.0971 39.6834H102.575C103.406 39.6834 104.037 39.8954 104.467 40.3174C104.897 40.7404 105.112 41.3604 105.112 42.1774C105.112 43.0084 104.897 43.6354 104.467 44.0584C104.037 44.4824 103.406 44.6924 102.575 44.6924H97.2151C96.9821 44.6924 96.8651 44.5764 96.8651 44.3434C96.8651 44.1094 96.9821 43.9924 97.2151 43.9924H102.465C103.151 43.9924 103.628 43.8474 103.898 43.5554C104.168 43.2644 104.303 42.8044 104.303 42.1774C104.303 41.5214 104.157 41.0584 103.866 40.7874C103.574 40.5184 103.107 40.3834 102.465 40.3834H98.9431C98.1561 40.3834 97.5581 40.1934 97.1501 39.8154C96.7421 39.4354 96.5371 38.8594 96.5371 38.0864Z" fill="#D0D7E2"/>
<path d="M108.963 36.0308C108.963 35.7978 109.08 35.6798 109.313 35.6798H110.713V33.6888C110.713 33.4268 110.851 33.2958 111.129 33.2958C111.391 33.2958 111.522 33.4268 111.522 33.6888V35.6798H114.519C114.753 35.6798 114.869 35.7978 114.869 36.0308C114.869 36.2628 114.753 36.3808 114.519 36.3808H111.522V44.4088C111.522 44.6718 111.383 44.8018 111.107 44.8018C110.844 44.8018 110.713 44.6718 110.713 44.4088V36.3808H109.313C109.08 36.3808 108.963 36.2628 108.963 36.0308Z" fill="#D0D7E2"/>
<path d="M119.507 38.9829H124.079C124.312 38.9829 124.429 39.0999 124.429 39.3339C124.429 39.5669 124.312 39.6829 124.079 39.6829H119.311V43.9929H126.157V36.3799H119.879C119.646 36.3799 119.529 36.2629 119.529 36.0309C119.529 35.7969 119.646 35.6799 119.879 35.6799H125.961C126.631 35.6799 126.966 36.0079 126.966 36.6649V43.6859C126.966 44.3569 126.631 44.6929 125.961 44.6929H119.507C118.836 44.6929 118.501 44.3569 118.501 43.6859V40.0109C118.501 39.3259 118.836 38.9829 119.507 38.9829Z" fill="#D0D7E2"/>
<path d="M132.938 36.1388C132.938 35.8328 133.09 35.6798 133.398 35.6798H140.398C141.068 35.6798 141.403 35.9998 141.403 36.6418V39.9018C141.403 40.1638 141.266 40.2948 140.988 40.2948C140.726 40.2948 140.595 40.1638 140.595 39.9018V36.3798H133.748V44.4088C133.748 44.6708 133.609 44.8018 133.331 44.8018C133.069 44.8018 132.938 44.6708 132.938 44.4088V36.1388Z" fill="#D0D7E2"/>
<path d="M144.948 36.0308C144.948 35.7978 145.065 35.6798 145.298 35.6798H146.698V33.6888C146.698 33.4268 146.835 33.2958 147.113 33.2958C147.375 33.2958 147.509 33.4268 147.509 33.6888V35.6798H150.506C150.737 35.6798 150.854 35.7978 150.854 36.0308C150.854 36.2628 150.737 36.3808 150.506 36.3808H147.509V44.4088C147.509 44.6718 147.368 44.8018 147.091 44.8018C146.829 44.8018 146.698 44.6718 146.698 44.4088V36.3808H145.298C145.065 36.3808 144.948 36.2628 144.948 36.0308Z" fill="#D0D7E2"/>
<path d="M155.01 36.1392C155.01 35.8332 155.163 35.6802 155.47 35.6802H162.47C163.141 35.6802 163.477 36.0082 163.477 36.6642V43.6862C163.477 44.3572 163.141 44.6932 162.47 44.6932H157.832C157.6 44.6932 157.483 44.5772 157.483 44.3432C157.483 44.1102 157.6 43.9932 157.832 43.9932H162.667V36.3802H155.82V47.5152C155.82 47.7782 155.681 47.9092 155.405 47.9092C155.143 47.9092 155.01 47.7782 155.01 47.5152V36.1392Z" fill="#D0D7E2"/>
<path d="M169.579 35.9642C169.579 35.7012 169.711 35.5702 169.974 35.5702H169.995C170.258 35.5702 170.389 35.7012 170.389 35.9642V44.4082C170.389 44.6712 170.25 44.8022 169.974 44.8022C169.711 44.8022 169.579 44.6712 169.579 44.4082V35.9642ZM169.776 32.5522H170.17C170.36 32.5522 170.454 32.6472 170.454 32.8362V33.3602C170.454 33.5512 170.36 33.6452 170.17 33.6452H169.776C169.587 33.6452 169.492 33.5512 169.492 33.3602V32.8362C169.492 32.6472 169.587 32.5522 169.776 32.5522Z" fill="#D0D7E2"/>
<path d="M176.71 44.2989V32.8359C176.71 32.5729 176.849 32.4429 177.127 32.4429C177.389 32.4429 177.52 32.5729 177.52 32.8359V43.9919H178.461C178.694 43.9919 178.811 44.1099 178.811 44.3429C178.811 44.5759 178.694 44.6929 178.461 44.6929H177.105C176.843 44.6929 176.71 44.5619 176.71 44.2989Z" fill="#D0D7E2"/>
<path d="M184.914 38.9829H189.486C189.72 38.9829 189.836 39.0999 189.836 39.3339C189.836 39.5669 189.72 39.6829 189.486 39.6829H184.717V43.9929H191.564V36.3799H185.285C185.052 36.3799 184.935 36.2629 184.935 36.0309C184.935 35.7969 185.052 35.6799 185.285 35.6799H191.367C192.038 35.6799 192.373 36.0079 192.373 36.6649V43.6859C192.373 44.3569 192.038 44.6929 191.367 44.6929H184.914C184.243 44.6929 183.908 44.3569 183.908 43.6859V40.0109C183.908 39.3259 184.243 38.9829 184.914 38.9829Z" fill="#D0D7E2"/>
<path d="M197.273 36.0308C197.273 35.7978 197.389 35.6798 197.623 35.6798H199.023V33.6888C199.023 33.4268 199.161 33.2958 199.439 33.2958C199.701 33.2958 199.833 33.4268 199.833 33.6888V35.6798H202.83C203.062 35.6798 203.18 35.7978 203.18 36.0308C203.18 36.2628 203.062 36.3808 202.83 36.3808H199.833V44.4088C199.833 44.6718 199.694 44.8018 199.417 44.8018C199.154 44.8018 199.023 44.6718 199.023 44.4088V36.3808H197.623C197.389 36.3808 197.273 36.2628 197.273 36.0308Z" fill="#D0D7E2"/>
<path d="M208.08 35.6799H214.577C215.233 35.6799 215.561 36.0079 215.561 36.6639V40.0759C215.561 40.7469 215.233 41.0829 214.577 41.0829H209.962C209.727 41.0829 209.611 40.9659 209.611 40.7339C209.611 40.4999 209.727 40.3829 209.962 40.3829H214.752V36.3799H207.904V43.9929H214.401C214.635 43.9929 214.752 44.1099 214.752 44.3429C214.752 44.5759 214.635 44.6929 214.401 44.6929H208.08C207.424 44.6929 207.096 44.3569 207.096 43.6859V36.6639C207.096 36.0079 207.424 35.6799 208.08 35.6799Z" fill="#D0D7E2"/>
<path d="M220.286 38.0864C220.286 37.2994 220.489 36.7014 220.898 36.2924C221.307 35.8844 221.905 35.6804 222.692 35.6804H227.657C227.89 35.6804 228.009 35.7974 228.009 36.0304C228.009 36.2634 227.89 36.3804 227.657 36.3804H222.846C222.232 36.3804 221.788 36.5044 221.512 36.7514C221.233 37.0004 221.095 37.4304 221.095 38.0424C221.095 38.6544 221.23 39.0814 221.5 39.3214C221.769 39.5634 222.218 39.6834 222.846 39.6834H226.323C227.155 39.6834 227.785 39.8954 228.216 40.3174C228.646 40.7404 228.861 41.3604 228.861 42.1774C228.861 43.0084 228.646 43.6354 228.216 44.0584C227.785 44.4824 227.155 44.6924 226.323 44.6924H220.964C220.73 44.6924 220.614 44.5764 220.614 44.3434C220.614 44.1094 220.73 43.9924 220.964 43.9924H226.215C226.9 43.9924 227.378 43.8474 227.647 43.5554C227.916 43.2644 228.052 42.8044 228.052 42.1774C228.052 41.5214 227.906 41.0584 227.614 40.7874C227.322 40.5184 226.855 40.3834 226.215 40.3834H222.692C221.905 40.3834 221.307 40.1934 220.898 39.8154C220.489 39.4354 220.286 38.8594 220.286 38.0864Z" fill="#D0D7E2"/>
<path d="M233.652 44.2554V43.6424C233.652 43.3514 233.798 43.2054 234.089 43.2054H234.702C234.994 43.2054 235.139 43.3514 235.139 43.6424V44.2554C235.139 44.5474 234.994 44.6924 234.702 44.6924H234.089C233.798 44.6924 233.652 44.5474 233.652 44.2554Z" fill="#D0D7E2"/>
<path d="M243.212 35.6798H247.806C248.039 35.6798 248.156 35.7968 248.156 36.0308C248.156 36.2628 248.039 36.3798 247.806 36.3798H243.036V43.9928H249.862V35.9638C249.862 35.7008 250 35.5708 250.277 35.5708C250.54 35.5708 250.672 35.7008 250.672 35.9638V46.8148C250.672 47.4708 250.335 47.7988 249.666 47.7988H247.674C247.441 47.7988 247.324 47.6818 247.324 47.4498C247.324 47.2148 247.441 47.0988 247.674 47.0988H249.862V44.6928H243.212C242.556 44.6928 242.228 44.3568 242.228 43.6858V36.6638C242.228 36.0078 242.556 35.6798 243.212 35.6798Z" fill="#D0D7E2"/>
<path d="M256.665 36.1388C256.665 35.8328 256.818 35.6798 257.124 35.6798H264.125C264.796 35.6798 265.131 35.9998 265.131 36.6418V39.9018C265.131 40.1638 264.992 40.2948 264.716 40.2948C264.452 40.2948 264.321 40.1638 264.321 39.9018V36.3798H257.475V44.4088C257.475 44.6708 257.336 44.8018 257.059 44.8018C256.796 44.8018 256.665 44.6708 256.665 44.4088V36.1388Z" fill="#D0D7E2"/>
<path d="M0 40.9639H26.412V39.8809H0V40.9639Z" fill="#D0D7E2"/>
<path d="M278.581 40.9639H304.993V39.8809H278.581V40.9639Z" fill="#D0D7E2"/>
</svg>
