<svg width="305" height="24" viewBox="0 0 305 24" fill="none" xmlns="http://www.w3.org/2000/svg">
<path d="M292.846 23.0584H286.763C286.647 23.0584 286.53 23.0654 286.415 23.0504C286.284 23.0344 286.148 23.0124 286.026 22.9634C285.553 22.7744 285.332 22.2774 285.423 21.6344C285.494 21.1294 285.842 20.7894 286.344 20.7414C286.494 20.7274 286.647 20.7274 286.798 20.7274C290.658 20.7274 294.516 20.7274 298.374 20.7264C298.867 20.7264 299.36 20.7024 299.834 20.5644C301.278 20.1454 302.116 19.1514 302.448 17.7214C302.664 16.7884 302.617 15.8544 302.24 14.9634C301.775 13.8664 301.022 13.0624 299.835 12.7344C299.349 12.6004 298.85 12.5714 298.349 12.5714C295.874 12.5704 293.4 12.5284 290.926 12.5814C288.068 12.6434 285.414 10.5534 284.894 7.43643C284.418 4.58843 285.971 1.73943 288.579 0.646427C289.245 0.367428 289.941 0.223429 290.664 0.223429C293.165 0.223429 295.666 0.222427 298.167 0.222427H301.812C301.892 0.222427 301.973 0.221428 302.053 0.222427C303.017 0.229427 303.538 1.00743 303.185 1.91343C303.042 2.28043 302.762 2.47943 302.379 2.53343C302.23 2.55443 302.076 2.55243 301.925 2.55243C298.343 2.55343 294.761 2.55343 291.179 2.55343C290.713 2.55343 290.249 2.57843 289.802 2.72343C288.604 3.10943 287.844 3.94943 287.466 5.11743C287.1 6.24643 287.211 7.36543 287.791 8.40543C288.467 9.61843 289.543 10.1984 290.915 10.2354C291.683 10.2554 292.451 10.2394 293.22 10.2394C295.105 10.2404 296.991 10.2054 298.873 10.2494C301.162 10.3034 302.922 11.3504 304.132 13.2834C304.69 14.1744 304.967 15.1684 304.989 16.2284C305.005 17.0614 304.995 17.8894 304.717 18.6884C303.895 21.0474 302.248 22.4724 299.807 22.9724C299.426 23.0504 299.026 23.0524 298.634 23.0544C296.704 23.0624 294.776 23.0584 292.846 23.0584Z" fill="#D0D7E2"/>
<path d="M270.538 12.4909C269.084 12.4909 267.629 12.4919 266.175 12.4909C265.374 12.4899 264.969 12.0829 264.975 11.2879C264.979 10.5489 265.377 10.1489 266.122 10.1479C268.22 10.1459 270.316 10.1469 272.414 10.1469C273.262 10.1469 274.109 10.1429 274.957 10.1509C275.133 10.1529 275.317 10.1739 275.48 10.2329C275.948 10.3999 276.109 10.7879 276.132 11.2429C276.154 11.7139 276.048 12.1469 275.577 12.3659C275.392 12.4519 275.164 12.4849 274.956 12.4859C273.483 12.4959 272.011 12.4909 270.538 12.4909Z" fill="#D0D7E2"/>
<path d="M262.228 2.55296V20.693C262.291 20.705 262.349 20.721 262.409 20.725C262.489 20.731 262.569 20.727 262.65 20.727H277.524C277.675 20.727 277.828 20.726 277.979 20.743C278.446 20.792 278.795 21.108 278.869 21.572C278.9 21.771 278.903 21.982 278.877 22.182C278.815 22.675 278.46 23 277.965 23.048C277.85 23.058 277.733 23.057 277.617 23.057C272.132 23.058 266.647 23.058 261.162 23.056C260.985 23.056 260.802 23.051 260.63 23.011C260.154 22.899 259.857 22.564 259.79 22.082C259.77 21.932 259.761 21.78 259.761 21.629C259.76 14.988 259.76 8.34596 259.761 1.70496C259.762 1.53596 259.77 1.36596 259.795 1.19896C259.875 0.655962 260.274 0.282961 260.821 0.23196C260.936 0.220961 261.053 0.22196 261.169 0.22196C266.591 0.22196 272.014 0.220961 277.437 0.223961C277.631 0.223961 277.832 0.236959 278.019 0.28396C278.356 0.369961 278.574 0.598961 278.671 0.931961C278.759 1.22996 278.758 1.53196 278.668 1.82896C278.54 2.24896 278.246 2.47996 277.816 2.53596C277.658 2.55596 277.496 2.55296 277.334 2.55296C272.421 2.55296 267.508 2.55296 262.594 2.55296H262.228Z" fill="#D0D7E2"/>
<path d="M242.909 23.2622C242.88 23.2432 242.852 23.2202 242.821 23.2092C242.349 23.0432 242.139 22.6892 242.105 22.2112C242.097 22.1052 242.1 21.9972 242.1 21.8912C242.1 16.6542 242.099 11.4172 242.102 6.18121C242.102 5.97721 242.112 5.76821 242.159 5.57221C242.255 5.17121 242.528 4.93121 242.928 4.83821C243.192 4.77621 243.459 4.77621 243.724 4.83721C244.147 4.93521 244.415 5.19721 244.513 5.61921C244.546 5.76521 244.559 5.91921 244.559 6.07021C244.561 11.3872 244.561 16.7032 244.559 22.0212C244.559 22.1612 244.544 22.3062 244.513 22.4452C244.436 22.7782 244.237 23.0182 243.922 23.1582C243.85 23.1902 243.782 23.2272 243.713 23.2622H242.909Z" fill="#D0D7E2"/>
<path d="M243.344 0.221863C246.461 0.221863 249.578 0.221863 252.696 0.221863C252.838 0.221863 252.982 0.219863 253.123 0.231863C253.591 0.273863 253.941 0.555863 254.026 1.01186C254.07 1.24286 254.07 1.49586 254.024 1.72586C253.937 2.16386 253.639 2.41686 253.197 2.48686C253.065 2.50786 252.93 2.51486 252.796 2.51486C246.482 2.51686 240.167 2.51586 233.853 2.51586C233.763 2.51586 233.673 2.51386 233.585 2.50486C232.978 2.44086 232.649 2.11886 232.594 1.50886C232.577 1.32586 232.596 1.13186 232.641 0.953863C232.744 0.543863 233.077 0.277863 233.511 0.233863C233.653 0.219863 233.796 0.221863 233.939 0.221863C237.074 0.221863 240.209 0.221863 243.344 0.221863Z" fill="#D0D7E2"/>
<path d="M229.24 23.2622C229.228 23.2492 229.219 23.2302 229.204 23.2262C228.808 23.1022 228.568 22.8202 228.392 22.4592C227.626 20.8882 226.854 19.3192 226.084 17.7492C226.041 17.6612 225.997 17.5742 225.938 17.4562H225.604C222.433 17.4562 219.261 17.4572 216.091 17.4552C215.903 17.4552 215.715 17.4492 215.53 17.4222C214.937 17.3382 214.643 16.9152 214.769 16.3322C214.796 16.2112 214.838 16.0922 214.889 15.9792C215.114 15.4892 215.491 15.2152 216.04 15.2042C216.29 15.1992 216.54 15.2012 216.791 15.2012H224.482H224.809C224.83 15.1692 224.835 15.1622 224.838 15.1542C224.842 15.1462 224.847 15.1362 224.844 15.1292C224.807 15.0382 224.773 14.9472 224.731 14.8592C222.779 10.7692 220.826 6.68021 218.872 2.59221C218.866 2.57921 218.843 2.57521 218.813 2.56021C218.77 2.64621 218.724 2.73021 218.683 2.81721C215.593 9.29921 212.499 15.7802 209.416 22.2662C209.2 22.7212 208.932 23.0902 208.442 23.2622H207.638C207.557 23.2282 207.475 23.1962 207.395 23.1612C206.994 22.9932 206.786 22.6422 206.87 22.2182C206.915 21.9932 206.994 21.7712 207.093 21.5642C208.69 18.2052 210.293 14.8492 211.894 11.4922C213.462 8.20821 215.029 4.92521 216.596 1.64021C216.642 1.54421 216.688 1.44821 216.738 1.35221C217.218 0.431208 218.051 0.0322075 219.062 0.0952072C220.01 0.155207 220.649 0.657207 221.051 1.50121C222.334 4.20021 223.623 6.89521 224.91 9.59121C226.808 13.5672 228.707 17.5432 230.602 21.5202C230.69 21.7042 230.774 21.8952 230.824 22.0922C230.958 22.6142 230.739 23.0072 230.237 23.1962C230.189 23.2132 230.144 23.2402 230.097 23.2622H229.24Z" fill="#D0D7E2"/>
<path d="M187.806 20.7274H188.189H202.203C202.355 20.7274 202.508 20.7244 202.659 20.7424C203.099 20.7944 203.4 21.0304 203.531 21.4604C203.616 21.7404 203.618 22.0254 203.545 22.3064C203.437 22.7274 203.104 23.0024 202.66 23.0464C202.536 23.0594 202.41 23.0574 202.285 23.0574C197.114 23.0584 191.943 23.0584 186.771 23.0574C186.611 23.0574 186.447 23.0594 186.29 23.0324C185.74 22.9344 185.406 22.5424 185.352 21.9494C185.343 21.8524 185.345 21.7524 185.345 21.6554C185.345 14.8814 185.345 8.10736 185.347 1.33336C185.347 1.17336 185.357 1.01136 185.387 0.855356C185.471 0.416357 185.741 0.128355 186.177 0.0503559C186.435 0.00435638 186.715 0.00135612 186.972 0.0493565C187.467 0.140356 187.758 0.512356 187.799 1.03536C187.811 1.17736 187.806 1.32036 187.806 1.46336V20.3394V20.7274Z" fill="#D0D7E2"/>
<path d="M173.333 23.2617C172.702 23.0527 172.475 22.5867 172.502 21.9577C172.505 21.9057 172.503 21.8517 172.503 21.7977C172.503 15.0237 172.502 8.24972 172.503 1.47472C172.503 1.33272 172.502 1.18972 172.515 1.04772C172.563 0.492718 172.874 0.14072 173.419 0.0347195C173.674 -0.0142803 173.934 -0.0162811 174.188 0.0577183C174.632 0.185719 174.874 0.489717 174.939 0.936718C174.962 1.08572 174.959 1.23872 174.959 1.39072C174.96 8.22672 174.96 15.0637 174.959 21.9007C174.959 22.0337 174.959 22.1687 174.944 22.3017C174.897 22.7267 174.686 23.0337 174.279 23.1957C174.231 23.2147 174.185 23.2397 174.138 23.2617H173.333Z" fill="#D0D7E2"/>
<path d="M144.174 1.19572C144.211 1.12772 144.258 1.06372 144.284 0.991718C144.447 0.527718 144.784 0.291719 145.26 0.232719C145.357 0.22072 145.456 0.221718 145.554 0.221718C149.743 0.221718 153.933 0.222719 158.121 0.223719C158.903 0.223719 159.673 0.31172 160.425 0.521719C162.433 1.08172 163.689 2.38372 164.221 4.39072C164.416 5.12772 164.495 5.88072 164.504 6.64172C164.516 7.56372 164.452 8.47772 164.223 9.37572C164.017 10.1787 163.692 10.9267 163.177 11.5847C162.389 12.5917 161.331 13.1647 160.106 13.4557C159.496 13.6007 158.876 13.6787 158.248 13.6787C155.685 13.6817 153.122 13.6817 150.558 13.6827C150.127 13.6827 149.751 13.5537 149.556 13.1447C149.343 12.7007 149.352 12.2437 149.623 11.8167C149.764 11.5947 149.984 11.4707 150.239 11.4267C150.406 11.3987 150.577 11.3877 150.746 11.3877C152.987 11.3847 155.23 11.3847 157.472 11.3867C158.188 11.3877 158.9 11.3527 159.595 11.1577C159.766 11.1097 159.936 11.0527 160.102 10.9867C160.817 10.6987 161.321 10.1987 161.617 9.48472C161.842 8.94272 161.957 8.37572 162.005 7.79672C162.073 6.96772 162.079 6.13872 161.918 5.31672C161.896 5.20272 161.869 5.08972 161.842 4.97772C161.527 3.70872 160.697 2.97272 159.441 2.70672C159.015 2.61672 158.577 2.57572 158.143 2.53372C157.877 2.50772 157.607 2.51672 157.339 2.51672C153.909 2.51572 150.48 2.51572 147.049 2.51572H146.677V2.91272C146.677 9.22272 146.677 15.5317 146.676 21.8417C146.676 21.9937 146.672 22.1457 146.654 22.2957C146.599 22.7577 146.348 23.0637 145.903 23.2087C145.861 23.2217 145.822 23.2437 145.782 23.2617H145.032C145.01 23.2467 144.991 23.2247 144.968 23.2177C144.607 23.1067 144.376 22.8707 144.268 22.5077C144.252 22.4517 144.206 22.4037 144.174 22.3507V1.19572Z" fill="#D0D7E2"/>
<path d="M112.206 22.2254V6.00443C112.206 5.45843 112.479 5.18443 113.026 5.18443H113.112C113.658 5.18443 113.932 5.45843 113.932 6.00443V22.2254C113.932 22.7724 113.63 23.0444 113.026 23.0444C112.479 23.0444 112.206 22.7724 112.206 22.2254ZM102.586 1.34543C102.586 0.827435 102.845 0.569433 103.363 0.569433H122.776C123.293 0.569433 123.552 0.827435 123.552 1.34543C123.552 1.86343 123.293 2.12143 122.776 2.12143H103.363C102.845 2.12143 102.586 1.86343 102.586 1.34543Z" fill="#D0D7E2"/>
<path d="M78.2119 1.47492C78.2119 0.870922 78.5139 0.568922 79.1179 0.568922H91.6719C95.8709 0.568922 97.9709 2.69792 97.9709 6.95392C97.9709 8.76592 97.4959 10.2399 96.5469 11.3749C95.5979 12.5119 94.1019 13.2809 92.0609 13.6829L98.0999 21.9239C98.6749 22.6719 98.4879 23.0449 97.5389 23.0449C97.0789 23.0449 96.6909 22.8439 96.3739 22.4409L89.9889 13.6829H84.2949C83.7769 13.6829 83.5189 13.4249 83.5189 12.9069C83.5189 12.3899 83.7769 12.1309 84.2949 12.1309H91.1109C92.6639 12.1309 93.9079 11.6849 94.8429 10.7929C95.7769 9.90192 96.2449 8.57892 96.2449 6.82392C96.2449 5.24292 95.8849 4.06292 95.1669 3.28692C94.4469 2.50992 93.0949 2.12192 91.1109 2.12192H79.9379V22.2249C79.9379 22.7719 79.6359 23.0449 79.0319 23.0449C78.4849 23.0449 78.2119 22.7719 78.2119 22.2249V1.47492Z" fill="#D0D7E2"/>
<path d="M47.1942 21.9229L56.9442 1.56095C57.3182 0.812946 57.9362 0.438946 58.7992 0.438946C59.6332 0.438946 60.2362 0.812946 60.6112 1.56095L70.3612 21.9229C70.7342 22.6709 70.5042 23.0439 69.6702 23.0439H69.6272C69.2532 23.0439 68.9802 22.8719 68.8072 22.5269L66.1762 17.1769H55.7792C55.0312 17.1769 54.8162 16.8469 55.1322 16.1849C55.3052 15.8399 55.5782 15.6679 55.9522 15.6679H65.4862L58.7562 1.60394L48.7472 22.5269C48.5752 22.8719 48.2872 23.0439 47.8852 23.0439C47.0502 23.0439 46.8202 22.6709 47.1942 21.9229Z" fill="#D0D7E2"/>
<path d="M33.2177 22.2249V6.00394C33.2177 5.45794 33.4907 5.18394 34.0367 5.18394H34.1237C34.6697 5.18394 34.9437 5.45794 34.9437 6.00394V22.2249C34.9437 22.7719 34.6417 23.0439 34.0367 23.0439C33.4907 23.0439 33.2177 22.7719 33.2177 22.2249ZM23.5977 1.34495C23.5977 0.826946 23.8567 0.568945 24.3737 0.568945H43.7867C44.3047 0.568945 44.5637 0.826946 44.5637 1.34495C44.5637 1.86295 44.3047 2.12094 43.7867 2.12094H24.3737C23.8567 2.12094 23.5977 1.86295 23.5977 1.34495Z" fill="#D0D7E2"/>
<path d="M0 6.39212C0 5.61612 0.143 4.88212 0.431 4.19212C0.718 3.50112 1.114 2.88312 1.617 2.33712C2.12 1.79112 2.717 1.35912 3.408 1.04212C4.098 0.726124 4.832 0.568125 5.608 0.568125H17.126C17.645 0.568125 17.903 0.842125 17.903 1.38812C17.903 1.90512 17.645 2.16412 17.126 2.16412H5.867C4.63 2.16412 3.63 2.58113 2.869 3.41512C2.106 4.25012 1.726 5.24212 1.726 6.39212C1.726 6.93812 1.818 7.47012 2.006 7.98812C2.192 8.50612 2.459 8.95912 2.804 9.34712C3.149 9.73512 3.58 10.0521 4.098 10.2961C4.616 10.5411 5.205 10.6631 5.867 10.6631H13.718C14.552 10.6631 15.329 10.8211 16.048 11.1381C16.767 11.4541 17.399 11.8781 17.946 12.4101C18.492 12.9431 18.917 13.5821 19.219 14.3301C19.521 15.0781 19.672 15.8831 19.672 16.7461C19.672 17.6081 19.521 18.4071 19.219 19.1401C18.917 19.8731 18.492 20.5141 17.946 21.0591C17.399 21.6061 16.767 22.0381 16.048 22.3541C15.329 22.6711 14.552 22.8281 13.718 22.8281H1.38C0.863 22.8281 0.604 22.5691 0.604 22.0521V22.0091C0.604 21.4911 0.863 21.2321 1.38 21.2321H13.503C14.883 21.2321 15.969 20.8091 16.76 19.9601C17.55 19.1121 17.946 18.0401 17.946 16.7461C17.946 15.5381 17.558 14.4881 16.781 13.5971C16.005 12.7051 14.911 12.2591 13.503 12.2591H5.608C4.832 12.2591 4.098 12.1011 3.408 11.7851C2.717 11.4691 2.12 11.0441 1.617 10.5121C1.114 9.98012 0.718 9.36212 0.431 8.65712C0.143 7.95312 0 7.19812 0 6.39212Z" fill="#D0D7E2"/>
</svg>
